<svg baseProfile="full" width="300" height="300" viewBox="0 0 300 300" version="1.1" xmlns="http://www.w3.org/2000/svg" xmlns:ev="http://www.w3.org/2001/xml-events" xmlns:xlink="http://www.w3.org/1999/xlink">

<style>rect.s{mask:url(#mask);}</style>
<defs>
  <pattern id="white" width="4" height="4" patternUnits="userSpaceOnUse" patternTransform="rotate(45)">
    <rect width="2" height="2" transform="translate(0,0)" fill="white"/>
  </pattern>
  <mask id="mask">
    <rect x="0" y="0" width="100%" height="100%" fill="url(#white)"/>
  </mask>
</defs>

<circle cx="150.0" cy="150.0" fill="#ebad15" r="28.5" stroke="white" stroke-width="1"/>
<path d="M 150.0 178.5 L 150.0 207.0 A 57.0 57.0 0 1 0 110.02649929585695 190.63396659761236 L 130.0132496479285 170.31698329880618 A 28.5 28.5 0 1 1 150.0 178.5 z" fill="#b4ad1c" stroke="white" stroke-width="1"/>
<path d="M 150.0 207.0 L 150.0 235.5 A 85.5 85.5 0 0 0 157.99445031275394 235.12542959772307 L 155.32963354183596 206.75028639848205 A 57.0 57.0 0 0 1 150.0 207.0 z" fill="#4c1" stroke="white" stroke-width="1"/>
<path d="M 155.32963354183596 206.75028639848205 L 157.99445031275394 235.12542959772307 A 85.5 85.5 0 0 0 169.0534152689646 233.3499692056835 L 162.7022768459764 205.56664613712232 A 57.0 57.0 0 0 1 155.32963354183596 206.75028639848205 z" fill="#4c1" stroke="white" stroke-width="1"/>
<path d="M 162.7022768459764 205.56664613712232 L 169.0534152689646 233.3499692056835 A 85.5 85.5 0 0 0 205.23044448090187 215.26751107895888 L 186.82029632060124 193.51167405263925 A 57.0 57.0 0 0 1 162.7022768459764 205.56664613712232 z" fill="#9ebe09" stroke="white" stroke-width="1"/>
<path d="M 169.0534152689646 233.3499692056835 L 175.40455369195283 261.13329227424464 A 114.0 114.0 0 0 0 179.03250770750006 260.24116062621056 L 171.77438078062505 232.6808704696579 A 85.5 85.5 0 0 1 169.0534152689646 233.3499692056835 z" fill="#e76241" stroke="white" stroke-width="1"/>
<path d="M 171.77438078062505 232.6808704696579 L 179.03250770750006 260.24116062621056 A 114.0 114.0 0 0 0 185.68448105198968 258.2710386578525 L 176.76336078899226 231.20327899338938 A 85.5 85.5 0 0 1 171.77438078062505 232.6808704696579 z" fill="#fb8530" stroke="white" stroke-width="1"/>
<path d="M 176.76336078899226 231.20327899338938 L 185.68448105198968 258.2710386578525 A 114.0 114.0 0 0 0 190.71272760122494 256.4822699385604 L 180.53454570091873 229.86170245392034 A 85.5 85.5 0 0 1 176.76336078899226 231.20327899338938 z" fill="#4c1" stroke="white" stroke-width="1"/>
<path d="M 180.53454570091873 229.86170245392034 L 190.71272760122494 256.4822699385604 A 114.0 114.0 0 0 0 197.11442707924095 253.808625657962 L 185.3358203094307 227.8564692434715 A 85.5 85.5 0 0 1 180.53454570091873 229.86170245392034 z" fill="#fb8530" stroke="white" stroke-width="1"/>
<path d="M 185.3358203094307 227.8564692434715 L 197.11442707924095 253.808625657962 A 114.0 114.0 0 0 0 203.34164029243271 250.75053057385216 L 190.00623021932452 225.5628979303891 A 85.5 85.5 0 0 1 185.3358203094307 227.8564692434715 z" fill="#4c1" stroke="white" stroke-width="1"/>
<path d="M 190.00623021932452 225.5628979303891 L 203.34164029243271 250.75053057385216 A 114.0 114.0 0 0 0 209.37130502310617 247.31931021052958 L 194.52847876732963 222.9894826578972 A 85.5 85.5 0 0 1 190.00623021932452 225.5628979303891 z" fill="#4c1" stroke="white" stroke-width="1"/>
<path d="M 194.52847876732963 222.9894826578972 L 209.37130502310617 247.31931021052958 A 114.0 114.0 0 0 0 215.61826712895493 243.22147295013693 L 199.2137003467162 219.9161047126027 A 85.5 85.5 0 0 1 194.52847876732963 222.9894826578972 z" fill="#4c1" stroke="white" stroke-width="1"/>
<path d="M 199.2137003467162 219.9161047126027 L 215.61826712895493 243.22147295013693 A 114.0 114.0 0 0 0 218.21078638384716 241.34160399783423 L 201.1580897878854 218.50620299837567 A 85.5 85.5 0 0 1 199.2137003467162 219.9161047126027 z" fill="#4c1" stroke="white" stroke-width="1"/>
<path d="M 215.61826712895493 243.22147295013693 L 232.0228339111937 266.52684118767115 A 142.5 142.5 0 0 0 235.26348297980897 264.1770049972928 L 218.21078638384716 241.34160399783423 A 114.0 114.0 0 0 1 215.61826712895493 243.22147295013693 z" fill="#4c1" stroke="white" stroke-width="1"/>
<path d="M 201.1580897878854 218.50620299837567 L 218.21078638384716 241.34160399783423 A 114.0 114.0 0 0 0 223.64059264120243 237.0233481052785 L 205.23044448090184 215.26751107895888 A 85.5 85.5 0 0 1 201.1580897878854 218.50620299837567 z" fill="#4c1" stroke="white" stroke-width="1"/>
<path d="M 186.82029632060124 193.51167405263925 L 205.23044448090187 215.26751107895888 A 85.5 85.5 0 1 0 65.61297277091785 163.75062309272377 L 93.74198184727857 159.16708206181585 A 57.0 57.0 0 1 1 186.82029632060124 193.51167405263925 z" fill="#a4a81c" stroke="white" stroke-width="1"/>
<path d="M 205.23044448090187 215.26751107895888 L 223.6405926412025 237.0233481052785 A 114.0 114.0 0 0 0 229.56563364336316 231.64134946784083 L 209.67422523252236 211.23101210088063 A 85.5 85.5 0 0 1 205.23044448090187 215.26751107895888 z" fill="#4c1" stroke="white" stroke-width="1"/>
<path d="M 209.67422523252236 211.23101210088063 L 229.56563364336316 231.64134946784083 A 114.0 114.0 0 0 0 192.20429844771905 44.10006046963079 L 181.6532238357893 70.57504535222309 A 85.5 85.5 0 0 1 209.67422523252236 211.23101210088063 z" fill="#4c1" stroke="white" stroke-width="1"/>
<path d="M 229.56563364336316 231.64134946784083 L 249.45704205420395 252.05168683480105 A 142.5 142.5 0 0 0 250.8805889251783 250.64470566358273 L 230.70447114014263 230.51576453086616 A 114.0 114.0 0 0 1 229.56563364336316 231.64134946784083 z" fill="#4c1" stroke="white" stroke-width="1"/>
<path d="M 230.70447114014263 230.51576453086616 L 250.8805889251783 250.64470566358273 A 142.5 142.5 0 0 0 254.57866471658838 246.79645079286428 L 233.6629317732707 227.43716063429142 A 114.0 114.0 0 0 1 230.70447114014263 230.51576453086616 z" fill="#4c1" stroke="white" stroke-width="1"/>
<path d="M 233.6629317732707 227.43716063429142 L 254.57866471658838 246.79645079286428 A 142.5 142.5 0 0 0 261.94379481333004 238.17503503141387 L 239.55503585066404 220.5400280251311 A 114.0 114.0 0 0 1 233.6629317732707 227.43716063429142 z" fill="#4c1" stroke="white" stroke-width="1"/>
<path d="M 239.55503585066404 220.5400280251311 L 261.94379481333004 238.17503503141387 A 142.5 142.5 0 0 0 270.4167238011961 226.19752377201274 L 246.3333790409569 210.95801901761018 A 114.0 114.0 0 0 1 239.55503585066404 220.5400280251311 z" fill="#4c1" stroke="white" stroke-width="1"/>
<path d="M 246.3333790409569 210.95801901761018 L 270.4167238011961 226.19752377201274 A 142.5 142.5 0 0 0 279.34398356716906 209.80287547414338 L 253.47518685373524 197.84230037931468 A 114.0 114.0 0 0 1 246.3333790409569 210.95801901761018 z" fill="#4c1" stroke="white" stroke-width="1"/>
<path d="M 253.47518685373524 197.84230037931468 L 279.34398356716906 209.80287547414338 A 142.5 142.5 0 0 0 282.25106263211603 203.06511502556194 L 255.80085010569286 192.45209202044956 A 114.0 114.0 0 0 1 253.47518685373524 197.84230037931468 z" fill="#4c1" stroke="white" stroke-width="1"/>
<path d="M 255.80085010569286 192.45209202044956 L 282.25106263211603 203.06511502556194 A 142.5 142.5 0 0 0 278.49126914740623 88.38633469035611 L 252.79301531792498 100.70906775228488 A 114.0 114.0 0 0 1 255.80085010569286 192.45209202044956 z" fill="#4c1" stroke="white" stroke-width="1"/>
<path d="M 252.79301531792498 100.70906775228488 L 278.49126914740623 88.38633469035611 A 142.5 142.5 0 0 0 270.77215616369335 74.36709515315137 L 246.6177249309547 89.4936761225211 A 114.0 114.0 0 0 1 252.79301531792498 100.70906775228488 z" fill="#4c1" stroke="white" stroke-width="1"/>
<path d="M 246.6177249309547 89.4936761225211 L 270.77215616369335 74.36709515315137 A 142.5 142.5 0 0 0 202.75537305964883 17.62507558703848 L 192.20429844771905 44.10006046963079 A 114.0 114.0 0 0 1 246.6177249309547 89.4936761225211 z" fill="#4c1" stroke="white" stroke-width="1"/>
<path d="M 181.6532238357893 70.57504535222309 L 192.20429844771905 44.10006046963079 A 114.0 114.0 0 0 0 173.31893553838688 38.410451899129214 L 167.48920165379016 66.30783892434691 A 85.5 85.5 0 0 1 181.6532238357893 70.57504535222309 z" fill="#f79127" stroke="white" stroke-width="1"/>
<path d="M 167.48920165379016 66.30783892434691 L 173.31893553838688 38.410451899129214 A 114.0 114.0 0 0 0 160.65926708367195 36.49942720303591 L 157.99445031275394 64.87457040227693 A 85.5 85.5 0 0 1 167.48920165379016 66.30783892434691 z" fill="#4c1" stroke="white" stroke-width="1"/>
<path d="M 157.99445031275394 64.87457040227693 L 160.65926708367195 36.49942720303591 A 114.0 114.0 0 0 0 136.15692952936595 36.84360645573287 L 139.61769714702447 65.13270484179965 A 85.5 85.5 0 0 1 157.99445031275394 64.87457040227693 z" fill="#afab1c" stroke="white" stroke-width="1"/>
<path d="M 139.61769714702447 65.13270484179965 L 136.15692952936595 36.84360645573287 A 114.0 114.0 0 0 0 118.39496133963314 40.468627639033414 L 126.29622100472486 67.85147072927505 A 85.5 85.5 0 0 1 139.61769714702447 65.13270484179965 z" fill="#4c1" stroke="white" stroke-width="1"/>
<path d="M 126.29622100472486 67.85147072927505 L 118.39496133963314 40.468627639033414 A 114.0 114.0 0 0 0 107.79570155228106 44.10006046963073 L 118.3467761642108 70.57504535222304 A 85.5 85.5 0 0 1 126.29622100472486 67.85147072927505 z" fill="#4c1" stroke="white" stroke-width="1"/>
<path d="M 118.3467761642108 70.57504535222304 L 107.79570155228106 44.10006046963073 A 114.0 114.0 0 0 0 54.24164153760887 88.14260929696272 L 78.18123115320665 103.60695697272203 A 85.5 85.5 0 0 1 118.3467761642108 70.57504535222304 z" fill="#e05d44" stroke="white" stroke-width="1"/>
<path d="M 78.18123115320665 103.60695697272203 L 54.24164153760887 88.14260929696272 A 114.0 114.0 0 0 0 44.80584316727199 106.06607952559409 L 71.104382375454 117.04955964419557 A 85.5 85.5 0 0 1 78.18123115320665 103.60695697272203 z" fill="#8eca02" stroke="white" stroke-width="1"/>
<path d="M 71.104382375454 117.04955964419557 L 44.80584316727199 106.06607952559409 A 114.0 114.0 0 0 0 37.48396369455712 168.3341641236316 L 65.61297277091784 163.75062309272369 A 85.5 85.5 0 0 1 71.104382375454 117.04955964419557 z" fill="#e05d44" stroke="white" stroke-width="1"/>
<path d="M 93.74198184727857 159.16708206181585 L 65.61297277091785 163.75062309272377 A 85.5 85.5 0 0 0 66.97343290154869 170.41663919077678 L 94.64895526769914 163.61109279385118 A 57.0 57.0 0 0 1 93.74198184727857 159.16708206181585 z" fill="#4c1" stroke="white" stroke-width="1"/>
<path d="M 65.61297277091785 163.75062309272377 L 37.48396369455713 168.3341641236317 A 114.0 114.0 0 0 0 39.29791053539826 177.22218558770237 L 66.97343290154869 170.41663919077678 A 85.5 85.5 0 0 1 65.61297277091785 163.75062309272377 z" fill="#4c1" stroke="white" stroke-width="1"/>
<path d="M 94.64895526769914 163.61109279385118 L 66.97343290154869 170.41663919077678 A 85.5 85.5 0 0 0 90.03974894378544 210.9509498964185 L 110.02649929585695 190.63396659761236 A 57.0 57.0 0 0 1 94.64895526769914 163.61109279385118 z" fill="#e05d44" stroke="white" stroke-width="1"/>
<path d="M 66.97343290154869 170.41663919077678 L 39.29791053539826 177.22218558770237 A 114.0 114.0 0 0 0 43.04849710751613 189.46360385265154 L 69.78637283063709 179.59770288948866 A 85.5 85.5 0 0 1 66.97343290154869 170.41663919077678 z" fill="#e05d44" stroke="white" stroke-width="1"/>
<path d="M 69.78637283063709 179.59770288948866 L 43.04849710751613 189.46360385265154 A 114.0 114.0 0 0 0 50.91920129874477 206.38258001121744 L 75.68940097405857 192.28693500841308 A 85.5 85.5 0 0 1 69.78637283063709 179.59770288948866 z" fill="#e05d44" stroke="white" stroke-width="1"/>
<path d="M 75.68940097405857 192.28693500841308 L 50.91920129874477 206.38258001121744 A 114.0 114.0 0 0 0 58.181612610165075 217.5676234385242 L 81.1362094576238 200.67571757889314 A 85.5 85.5 0 0 1 75.68940097405857 192.28693500841308 z" fill="#a4a61d" stroke="white" stroke-width="1"/>
<path d="M 81.1362094576238 200.67571757889314 L 58.181612610165075 217.5676234385242 A 114.0 114.0 0 0 0 70.05299859171392 231.26793319522469 L 90.03974894378544 210.9509498964185 A 85.5 85.5 0 0 1 81.1362094576238 200.67571757889314 z" fill="#e05d44" stroke="white" stroke-width="1"/>
<path d="M 130.0132496479285 170.31698329880618 L 110.02649929585695 190.63396659761236 A 57.0 57.0 0 0 0 150.0 207.0 L 150.0 178.5 A 28.5 28.5 0 0 1 130.0132496479285 170.31698329880618 z" fill="#e05d44" stroke="white" stroke-width="1"/>
<path d="M 110.02649929585695 190.63396659761236 L 90.03974894378544 210.9509498964185 A 85.5 85.5 0 0 0 90.61310869043245 211.50973208026198 L 110.40873912695497 191.006488053508 A 57.0 57.0 0 0 1 110.02649929585695 190.63396659761236 z" fill="#4c1" stroke="white" stroke-width="1"/>
<path d="M 110.40873912695497 191.006488053508 L 90.61310869043245 211.50973208026198 A 85.5 85.5 0 0 0 91.48289592679605 212.33777771853772 L 110.9885972845307 191.55851847902514 A 57.0 57.0 0 0 1 110.40873912695497 191.006488053508 z" fill="#e05d44" stroke="white" stroke-width="1"/>
<path d="M 110.9885972845307 191.55851847902514 L 91.48289592679605 212.33777771853772 A 85.5 85.5 0 0 0 146.7982906642511 235.44003193661257 L 147.86552710950076 206.96002129107507 A 57.0 57.0 0 0 1 110.9885972845307 191.55851847902514 z" fill="#e05d44" stroke="white" stroke-width="1"/>
<path d="M 91.48289592679605 212.33777771853772 L 71.9771945690614 233.11703695805028 A 114.0 114.0 0 0 0 102.88557292075902 253.80862565796198 L 114.66417969056926 227.8564692434715 A 85.5 85.5 0 0 1 91.48289592679605 212.33777771853772 z" fill="#e05d44" stroke="white" stroke-width="1"/>
<path d="M 114.66417969056926 227.8564692434715 L 102.88557292075902 253.80862565796198 A 114.0 114.0 0 0 0 106.31245690427724 255.29671684463563 L 117.23434267820794 228.9725376334767 A 85.5 85.5 0 0 1 114.66417969056926 227.8564692434715 z" fill="#4c1" stroke="white" stroke-width="1"/>
<path d="M 117.23434267820794 228.9725376334767 L 106.31245690427724 255.29671684463563 A 114.0 114.0 0 0 0 108.78917511459336 256.29048834333366 L 119.09188133594503 229.71786625750025 A 85.5 85.5 0 0 1 117.23434267820794 228.9725376334767 z" fill="#efa41b" stroke="white" stroke-width="1"/>
<path d="M 119.09188133594503 229.71786625750025 L 108.78917511459336 256.29048834333366 A 114.0 114.0 0 0 0 144.1314219561805 263.84884624687066 L 145.59856646713538 235.386634685153 A 85.5 85.5 0 0 1 119.09188133594503 229.71786625750025 z" fill="#e05d44" stroke="white" stroke-width="1"/>
<path d="M 145.59856646713538 235.386634685153 L 144.1314219561805 263.84884624687066 A 114.0 114.0 0 0 0 145.7310542190015 263.92004258215013 L 146.7982906642511 235.44003193661257 A 85.5 85.5 0 0 1 145.59856646713538 235.386634685153 z" fill="#4c1" stroke="white" stroke-width="1"/>
<path d="M 147.86552710950076 206.96002129107507 L 146.7982906642511 235.44003193661257 A 85.5 85.5 0 0 0 149.99999999999997 235.5 L 150.0 207.0 A 57.0 57.0 0 0 1 147.86552710950076 206.96002129107507 z" fill="#e05d44" stroke="white" stroke-width="1"/>
</svg>